<svg class="ms-lg-auto" xmlns="http://www.w3.org/2000/svg" xmlns:xlink="http://www.w3.org/1999/xlink" width="202" height="111" viewBox="0 0 202 111"><defs><clipPath id="a"><rect width="202" height="111" fill="#f2f0e8"></rect></clipPath></defs><g clip-path="url(#a)"><path d="M112.7,0H90.377V22.611H112.7V45.225H90.377V22.614H68.053V0H45.729V22.614H23.405V0H1.081V67.846H23.405V45.232H45.729V67.846H68.053V45.232H90.377V67.846H112.7V45.232h22.324V22.618H112.7Zm66.975,45.229V22.614H202V0H135.025V22.614h22.323V45.229H135.025V67.843H202V45.229Z" fill="#f2f0e8"></path><path d="M105.751,94.877h5.773v15.394h6.159V94.877h5.745v-5.82H105.751Z" fill="#f2f0e8"></path><path d="M138.1,101.271c0,2.333-1.315,3.515-3.172,3.515-1.825,0-3.051-1.182-3.051-3.515V89.057h-6.163v12.91c0,5.547,3.8,8.911,9.214,8.911,5.444,0,9.332-3.364,9.332-8.911V89.057H138.1v12.214Z" fill="#f2f0e8"></path><path d="M53.2,103.148,48.894,89.057h-6.67l7.326,21.214h7.389l7.24-21.214H57.417Z" fill="#f2f0e8"></path><path d="M32.24,89.057H23.267v21.211h8.676c7.18,0,10.8-4.667,10.8-10.878C42.741,93.268,39.24,89.057,32.24,89.057Zm-.39,15.668H29.426V94.6h2.541c2.842,0,4.278,1.878,4.278,4.908,0,3.058-1.467,5.213-4.4,5.213Z" fill="#f2f0e8"></path><path d="M164.656,95.878c0-4.362-3.172-6.818-8.077-6.818h-9.813v21.211h6.163v-8.182l5.114,8.182h7.209l-5.476-8.333a5.736,5.736,0,0,0,4.877-6.06Zm-9.512,3.181h-2.215V94.212h2.513c1.676,0,2.573.819,2.573,2.334,0,1.576-.957,2.517-2.871,2.517Z" fill="#f2f0e8"></path><path d="M72.1,101.727h7.988V97.088H72.1V94.363h8.647V89.057H65.944v21.214H80.872v-5.3H72.1Z" fill="#f2f0e8"></path><path d="M97.518,101.939,90.968,89.057h-7.6v21.214h5.805v-13.3l7,13.3h7.176V89.057H97.518Z" fill="#f2f0e8"></path><path d="M6.372,89.057,0,110.271H6.4l.957-3.637h6.521l.989,3.637h6.521l-6.432-21.21H6.372ZM8.587,102l2.006-7.665L12.656,102Z" fill="#f2f0e8"></path><path d="M173.453,101.727h7.988V97.088h-7.988V94.363H182.1V89.057H167.293v21.214h14.924v-5.3h-8.764Z" fill="#f2f0e8"></path><path d="M184.616,108.928v-5.586a13,13,0,0,0,7,2.312c1.662,0,2.371-.538,2.371-1.59,0-.661-.326-1.142-1.364-1.533l-2.7-.812c-3.825-1.17-5.4-3.094-5.4-6.218,0-4.265,3.055-6.818,8.243-6.818a15.639,15.639,0,0,1,7.057,1.741v5.468A12.391,12.391,0,0,0,193.568,94c-1.719,0-2.459.449-2.459,1.321,0,.689.535,1.113,1.6,1.443l2.193.6c4.15,1.113,6.018,3.152,6.018,6.548,0,4.416-3.143,7.087-8.537,7.087A15.631,15.631,0,0,1,184.616,108.928Z" fill="#f2f0e8"></path></g></svg>